<svg id="visual" viewBox="0 0 900 600" width="900" height="600" xmlns="http://www.w3.org/2000/svg" xmlns:xlink="http://www.w3.org/1999/xlink" version="1.1"><rect x="0" y="0" width="900" height="600" fill="#001220"></rect><path d="M0 386L21.5 396.7C43 407.3 86 428.7 128.8 434.8C171.7 441 214.3 432 257.2 420.3C300 408.7 343 394.3 385.8 385.2C428.7 376 471.3 372 514.2 382.5C557 393 600 418 642.8 430.8C685.7 443.7 728.3 444.3 771.2 433.8C814 423.3 857 401.7 878.5 390.8L900 380L900 601L878.5 601C857 601 814 601 771.2 601C728.3 601 685.7 601 642.8 601C600 601 557 601 514.2 601C471.3 601 428.7 601 385.8 601C343 601 300 601 257.2 601C214.3 601 171.7 601 128.8 601C86 601 43 601 21.5 601L0 601Z" fill="#c96d66"></path><path d="M0 510L21.5 508C43 506 86 502 128.8 498.2C171.7 494.3 214.3 490.7 257.2 487.7C300 484.7 343 482.3 385.8 475.3C428.7 468.3 471.3 456.7 514.2 462C557 467.3 600 489.7 642.8 490.3C685.7 491 728.3 470 771.2 461.7C814 453.3 857 457.7 878.5 459.8L900 462L900 601L878.5 601C857 601 814 601 771.2 601C728.3 601 685.7 601 642.8 601C600 601 557 601 514.2 601C471.3 601 428.7 601 385.8 601C343 601 300 601 257.2 601C214.3 601 171.7 601 128.8 601C86 601 43 601 21.5 601L0 601Z" fill="#ca4d62"></path><path d="M0 518L21.5 518.7C43 519.3 86 520.7 128.8 522C171.7 523.3 214.3 524.7 257.2 526.3C300 528 343 530 385.8 531.2C428.7 532.3 471.3 532.7 514.2 527.2C557 521.7 600 510.3 642.8 505.8C685.7 501.3 728.3 503.7 771.2 507.5C814 511.3 857 516.7 878.5 519.3L900 522L900 601L878.5 601C857 601 814 601 771.2 601C728.3 601 685.7 601 642.8 601C600 601 557 601 514.2 601C471.3 601 428.7 601 385.8 601C343 601 300 601 257.2 601C214.3 601 171.7 601 128.8 601C86 601 43 601 21.5 601L0 601Z" fill="#c62368"></path></svg>