<svg id="visual" viewBox="0 0 900 600" width="900" height="600" xmlns="http://www.w3.org/2000/svg" xmlns:xlink="http://www.w3.org/1999/xlink" version="1.1"><rect width="900" height="600" fill="#001829"></rect><g><g transform="translate(50 67)"><path d="M0 -103.3L89.5 -51.7L89.5 51.7L0 103.3L-89.5 51.7L-89.5 -51.7Z" fill="#297EA6"></path></g><g transform="translate(652 365)"><path d="M0 -61L52.8 -30.5L52.8 30.5L0 61L-52.8 30.5L-52.8 -30.5Z" fill="#297EA6"></path></g><g transform="translate(119 457)"><path d="M0 -65L56.3 -32.5L56.3 32.5L0 65L-56.3 32.5L-56.3 -32.5Z" fill="#297EA6"></path></g><g transform="translate(397 529)"><path d="M0 -99L85.7 -49.5L85.7 49.5L0 99L-85.7 49.5L-85.7 -49.5Z" fill="#297EA6"></path></g><g transform="translate(301 96)"><path d="M0 -62L53.7 -31L53.7 31L0 62L-53.7 31L-53.7 -31Z" fill="#297EA6"></path></g><g transform="translate(830 60)"><path d="M0 -76L65.8 -38L65.8 38L0 76L-65.8 38L-65.8 -38Z" fill="#297EA6"></path></g></g></svg>