<?xml version="1.0" standalone="no"?>
<svg xmlns:xlink="http://www.w3.org/1999/xlink" id="wave" style="transform:rotate(0deg); transition: 0.3s" viewBox="0 0 1440 420" version="1.1" xmlns="http://www.w3.org/2000/svg"><defs><linearGradient id="sw-gradient-0" x1="0" x2="0" y1="1" y2="0"><stop stop-color="rgba(11.704, 11.704, 11.704, 1)" offset="0%"/><stop stop-color="rgba(148.311, 135.646, 107.649, 1)" offset="100%"/></linearGradient></defs><path style="transform:translate(0, 0px); opacity:1" fill="url(#sw-gradient-0)" d="M0,84L1440,84L2880,252L4320,168L5760,210L7200,294L8640,378L10080,210L11520,378L12960,168L14400,336L15840,378L17280,336L18720,336L20160,210L21600,126L23040,0L24480,336L25920,126L27360,210L28800,84L30240,378L31680,294L33120,378L34560,210L34560,420L33120,420L31680,420L30240,420L28800,420L27360,420L25920,420L24480,420L23040,420L21600,420L20160,420L18720,420L17280,420L15840,420L14400,420L12960,420L11520,420L10080,420L8640,420L7200,420L5760,420L4320,420L2880,420L1440,420L0,420Z"/></svg>